<mxfile host="app.diagrams.net" modified="2023-04-11T01:13:52.062Z" agent="Mozilla/5.0 (Windows NT 10.0; Win64; x64) AppleWebKit/537.36 (KHTML, like Gecko) Chrome/111.0.0.0 Safari/537.36" version="21.1.5" etag="m3swGQeyuB-v2Y-51BSw" type="github">
  <diagram name="第 1 页" id="2wSOgb8PyZWi1IdI3hEw">
    <mxGraphModel>
      <root>
        <mxCell id="0" />
        <mxCell id="1" parent="0" />
      </root>
    </mxGraphModel>
  </diagram>
</mxfile>
